<?xml version="1.0" encoding="utf-8"?>
<!-- Generator: Adobe Illustrator 22.1.0, SVG Export Plug-In . SVG Version: 6.00 Build 0)  -->
<svg version="1.1" id="Icon_Set" xmlns="http://www.w3.org/2000/svg" xmlns:xlink="http://www.w3.org/1999/xlink" x="0px" y="0px"
	 viewBox="0 0 512 512" style="enable-background:new 0 0 512 512;" xml:space="preserve">
<style type="text/css">
	.st0{fill:#F0C48A;}
	.st1{fill:#FD919E;}
	.st2{fill:#4C4372;}
	.st3{fill:#D3E6F8;}
	.st4{fill:#A4CFF2;}
	.st5{fill:#7BABF1;}
	.st6{fill:#FFFFFF;}
	.st7{fill:#E8677D;}
	.st8{fill:none;stroke:#4C4372;stroke-width:12;stroke-linecap:round;stroke-linejoin:round;stroke-miterlimit:10;}
</style>
<g id="Shift_Rotation">
	<g>
		<g>
			<circle class="st0" cx="256" cy="256" r="207"/>
		</g>
	</g>
	<g>
		<g>
			<g>
				<g>
					<path class="st3" d="M271.61,346.69H91.501v-59.762c0-16.858,13.666-30.524,30.524-30.524h119.059
						c16.858,0,30.524,13.666,30.524,30.524V346.69z"/>
				</g>
				<g>
					<path class="st5" d="M167.947,280.493c0,0,14.553,10.837,27.183,0c-13.525,50.886-13.525,50.886-13.525,50.886L167.947,280.493
						z"/>
				</g>
				<g>
					<path class="st5" d="M233.989,197.222v-40.11c0-28.931-23.453-52.384-52.384-52.384h0c-28.931,0-52.384,23.453-52.384,52.384
						v40.11h16.358h73.254H233.989z"/>
				</g>
				<g>
					<path class="st2" d="M233.989,203.222H129.221c-3.313,0-6-2.686-6-6v-40.11c0-32.193,26.191-58.384,58.384-58.384
						s58.384,26.191,58.384,58.384v40.11C239.989,200.536,237.303,203.222,233.989,203.222z M135.221,191.222h92.769v-34.11
						c0-25.576-20.808-46.384-46.384-46.384s-46.384,20.808-46.384,46.384V191.222z"/>
				</g>
				<g>
					<path class="st3" d="M227.963,211.506h-92.814c-8.88,0-16.078-7.198-16.078-16.078v0c0-8.88,7.198-16.078,16.078-16.078h92.814
						c8.88,0,16.078,7.198,16.078,16.078v0C244.041,204.307,236.842,211.506,227.963,211.506z"/>
				</g>
				<g>
					<path class="st2" d="M227.962,217.506h-92.814c-12.174,0-22.078-9.904-22.078-22.078s9.904-22.078,22.078-22.078h92.814
						c12.174,0,22.078,9.904,22.078,22.078S240.136,217.506,227.962,217.506z M135.148,185.349c-5.557,0-10.078,4.521-10.078,10.078
						s4.521,10.078,10.078,10.078h92.814c5.557,0,10.078-4.521,10.078-10.078s-4.521-10.078-10.078-10.078H135.148z"/>
				</g>
				<g>
					<path class="st2" d="M271.609,352.69H91.501c-3.314,0-6-2.686-6-6v-59.762c0-20.14,16.385-36.524,36.524-36.524h119.059
						c20.14,0,36.524,16.385,36.524,36.524v59.762C277.609,350.004,274.923,352.69,271.609,352.69z M97.501,340.69h168.108v-53.762
						c0-13.523-11.001-24.524-24.524-24.524H122.026c-13.523,0-24.524,11.002-24.524,24.524V340.69z"/>
				</g>
				<g>
					<g>
						<path class="st2" d="M128.075,352.69c-3.313,0-6-2.686-6-6v-30.623c0-3.314,2.687-6,6-6s6,2.686,6,6v30.623
							C134.075,350.004,131.389,352.69,128.075,352.69z"/>
					</g>
				</g>
				<g>
					<path class="st3" d="M181.539,285.804L181.539,285.804c-11.077,0-20.057-8.98-20.057-20.057v-35.742h40.114v35.742
						C201.596,276.824,192.616,285.804,181.539,285.804z"/>
				</g>
				<g>
					<path class="st2" d="M181.539,291.804c-14.368,0-26.057-11.689-26.057-26.057v-35.742c0-3.314,2.687-6,6-6h40.114
						c3.313,0,6,2.686,6,6v35.742C207.596,280.115,195.907,291.804,181.539,291.804z M167.482,236.005v29.742
						c0,7.751,6.306,14.057,14.057,14.057h0c7.751,0,14.057-6.306,14.057-14.057v-29.742H167.482z"/>
				</g>
				<g>
					<path class="st6" d="M199.836,150.7c-16.698,18.236-48.706,25.341-62.76,27.667c-0.346,2.25-0.527,4.555-0.527,6.903v20.936
						c0,24.857,20.15,45.007,45.007,45.007h0c24.857,0,45.007-20.15,45.007-45.007V185.27c0-2.163-0.162-4.287-0.457-6.369
						C222.125,176.869,205.983,167.751,199.836,150.7z"/>
				</g>
				<g>
					<g>
						<path class="st2" d="M161.352,201.738c-3.313,0-6-2.686-6-6v-8.729c0-3.314,2.687-6,6-6s6,2.686,6,6v8.729
							C167.352,199.051,164.666,201.738,161.352,201.738z"/>
					</g>
					<g>
						<path class="st2" d="M201.759,201.738c-3.313,0-6-2.686-6-6v-8.729c0-3.314,2.687-6,6-6s6,2.686,6,6v8.729
							C207.759,199.051,205.073,201.738,201.759,201.738z"/>
					</g>
				</g>
				<g>
					<path class="st2" d="M181.556,257.213c-28.125,0-51.007-22.882-51.007-51.007V185.27c0-2.61,0.201-5.239,0.597-7.815
						c0.395-2.564,2.392-4.584,4.951-5.007c12.647-2.093,43.745-8.796,59.314-25.799c1.418-1.549,3.543-2.244,5.604-1.831
						c2.06,0.413,3.754,1.872,4.466,3.848c5.455,15.131,20.41,23.39,23.353,24.892c1.74,0.888,2.938,2.567,3.213,4.501
						c0.343,2.415,0.517,4.842,0.517,7.212v20.936C232.562,234.331,209.681,257.213,181.556,257.213z M142.589,183.486
						c-0.027,0.595-0.041,1.19-0.041,1.784v20.936c0,21.509,17.499,39.007,39.007,39.007c21.508,0,39.007-17.499,39.007-39.007
						V185.27c0-0.864-0.031-1.74-0.091-2.622c-5.746-3.367-15.899-10.512-22.558-21.958
						C188.428,168.405,171.469,178.055,142.589,183.486z"/>
				</g>
				<g>
					<polygon class="st6" points="143.643,256.404 129.221,285.804 148.963,285.804 139.092,301.547 181.605,331.378 
						161.482,256.404 					"/>
				</g>
				<g>
					<path class="st2" d="M181.605,337.378c-1.206,0-2.412-0.363-3.446-1.089l-42.514-29.832c-2.614-1.834-3.333-5.394-1.637-8.099
						l4.11-6.556h-8.897c-2.071,0-3.996-1.068-5.092-2.826c-1.096-1.758-1.207-3.957-0.295-5.816l14.422-29.4
						c1.008-2.055,3.098-3.357,5.387-3.357h17.839c2.715,0,5.091,1.823,5.795,4.445l20.123,74.975
						c0.654,2.438-0.287,5.024-2.355,6.471C184.012,337.017,182.809,337.378,181.605,337.378z M147.201,299.907l24.326,17.07
						l-14.647-54.574h-9.497l-8.536,17.4h10.115c2.183,0,4.193,1.185,5.25,3.095s0.993,4.243-0.167,6.092L147.201,299.907z"/>
				</g>
				<g>
					<polygon class="st6" points="219.567,256.404 233.989,285.804 214.247,285.804 224.118,301.547 181.605,331.378 
						201.728,256.404 					"/>
				</g>
				<g>
					<path class="st2" d="M181.605,337.378c-1.204,0-2.407-0.361-3.44-1.084c-2.068-1.447-3.009-4.034-2.355-6.471l20.123-74.975
						c0.704-2.622,3.08-4.445,5.795-4.445h17.839c2.289,0,4.378,1.302,5.387,3.357l14.422,29.4c0.912,1.86,0.801,4.058-0.295,5.816
						c-1.096,1.758-3.021,2.826-5.092,2.826h-8.898l4.11,6.556c1.696,2.705,0.977,6.265-1.637,8.099l-42.513,29.832
						C184.018,337.015,182.811,337.378,181.605,337.378z M206.33,262.404l-14.647,54.573l24.326-17.07l-6.845-10.916
						c-1.159-1.849-1.223-4.182-0.167-6.092s3.067-3.095,5.25-3.095h10.116l-8.536-17.4H206.33z"/>
				</g>
				<g>
					<path class="st2" d="M181.605,352.69c-3.313,0-6-2.686-6-6v-15.312c0-3.314,2.687-6,6-6s6,2.686,6,6v15.312
						C187.605,350.004,184.918,352.69,181.605,352.69z"/>
				</g>
			</g>
			<g>
				<g>
					<g>
						<path class="st5" d="M346.101,111.617L346.101,111.617c-32.018,0-57.974,25.956-57.974,57.974v14.135v10.078v82.901h115.948
							v-82.901v-10.078V169.59C404.075,137.572,378.119,111.617,346.101,111.617z"/>
					</g>
					<g>
						<path class="st2" d="M404.075,282.704H288.128c-3.313,0-6-2.686-6-6V169.59c0-35.275,28.698-63.974,63.974-63.974
							s63.974,28.698,63.974,63.974v107.113C410.075,280.017,407.389,282.704,404.075,282.704z M294.128,270.704h103.947V169.59
							c0-28.658-23.315-51.974-51.974-51.974s-51.974,23.315-51.974,51.974V270.704z"/>
					</g>
					<g>
						<path class="st1" d="M420.498,346.69H271.61v-48.901c0-19.987,16.202-36.189,36.189-36.189h76.511
							c19.987,0,36.189,16.202,36.189,36.189V346.69z"/>
					</g>
					<g>
						<path class="st2" d="M420.498,352.69H271.609c-3.313,0-6-2.686-6-6v-48.901c0-23.263,18.926-42.189,42.189-42.189h76.511
							c23.263,0,42.188,18.926,42.188,42.189v48.901C426.498,350.004,423.812,352.69,420.498,352.69z M277.609,340.69h136.889
							v-42.901c0-16.646-13.543-30.189-30.188-30.189h-76.511c-16.646,0-30.189,13.542-30.189,30.189V340.69z"/>
					</g>
					<g>
						<g>
							<path class="st2" d="M390.265,352.69c-3.313,0-6-2.686-6-6v-27.649c0-3.314,2.687-6,6-6s6,2.686,6,6v27.649
								C396.265,350.004,393.578,352.69,390.265,352.69z"/>
						</g>
					</g>
					<g>
						<path class="st3" d="M346.038,289.696L346.038,289.696c-10.586,0-19.167-8.581-19.167-19.167v-34.156h38.334v34.156
							C365.205,281.114,356.624,289.696,346.038,289.696z"/>
					</g>
					<g>
						<path class="st2" d="M346.038,295.696c-13.877,0-25.167-11.29-25.167-25.167v-34.156c0-3.314,2.687-6,6-6h38.334
							c3.313,0,6,2.686,6,6v34.156C371.205,284.406,359.915,295.696,346.038,295.696z M332.871,242.372v28.156
							c0,7.26,5.906,13.167,13.167,13.167s13.167-5.907,13.167-13.167v-28.156H332.871z"/>
					</g>
					<g>
						<path class="st6" d="M363.556,160.586c-15.957,17.427-46.545,24.217-59.975,26.439c-0.331,2.151-0.504,4.353-0.504,6.596
							v20.007c0,23.754,19.256,43.01,43.01,43.01h0c23.754,0,43.01-19.256,43.01-43.01v-20.007c0-2.067-0.155-4.097-0.437-6.086
							C384.856,185.594,369.431,176.881,363.556,160.586z"/>
					</g>
					<g>
						<g>
							<path class="st2" d="M326.779,209.625c-3.313,0-6-2.686-6-6v-8.342c0-3.314,2.687-6,6-6s6,2.686,6,6v8.342
								C332.779,206.939,330.093,209.625,326.779,209.625z"/>
						</g>
						<g>
							<path class="st2" d="M365.394,209.625c-3.313,0-6-2.686-6-6v-8.342c0-3.314,2.687-6,6-6s6,2.686,6,6v8.342
								C371.394,206.939,368.707,209.625,365.394,209.625z"/>
						</g>
					</g>
					<g>
						<path class="st2" d="M346.087,262.639c-27.024,0-49.011-21.986-49.011-49.01v-20.007c0-2.51,0.193-5.036,0.574-7.509
							c0.395-2.563,2.392-4.583,4.95-5.007c12.06-1.996,41.708-8.385,56.53-24.572c1.417-1.549,3.541-2.245,5.604-1.831
							c2.06,0.413,3.753,1.872,4.466,3.848c5.179,14.364,19.392,22.213,22.188,23.641c1.74,0.888,2.938,2.567,3.213,4.501
							c0.329,2.32,0.496,4.651,0.496,6.929v20.007C395.097,240.653,373.111,262.639,346.087,262.639z M309.106,192.131
							c-0.021,0.497-0.03,0.994-0.03,1.49v20.007c0,20.407,16.603,37.01,37.011,37.01c20.407,0,37.01-16.603,37.01-37.01v-20.007
							c0-0.774-0.025-1.558-0.077-2.348c-5.487-3.233-15.013-9.977-21.361-20.718c-7.035,5.696-16.069,10.584-26.971,14.585
							C325.299,188.585,316.153,190.777,309.106,192.131z"/>
					</g>
				</g>
				<g>
					<polygon class="st6" points="326.779,261.6 303.077,286.182 346.038,312.546 346.038,289.696 					"/>
				</g>
				<g>
					<polygon class="st6" points="365.36,261.6 389.063,286.182 346.101,312.546 346.101,289.696 					"/>
				</g>
				<g>
					<path class="st2" d="M346.038,318.546c-1.089,0-2.177-0.296-3.139-0.886l-42.962-26.364c-1.549-0.951-2.584-2.553-2.813-4.356
						s0.371-3.614,1.633-4.922l23.703-24.582c1.252-1.297,3.023-1.965,4.817-1.814c1.797,0.15,3.432,1.1,4.451,2.587l19.259,28.096
						c0.685,0.999,1.051,2.181,1.051,3.392v22.851c0,2.172-1.174,4.175-3.07,5.236C348.057,318.292,347.047,318.546,346.038,318.546
						z M312.577,284.973l27.461,16.852v-10.27l-14.047-20.493L312.577,284.973z"/>
				</g>
				<g>
					<path class="st2" d="M346.102,318.546c-1.009,0-2.019-0.254-2.93-0.764c-1.896-1.061-3.07-3.063-3.07-5.236v-22.851
						c0-1.211,0.366-2.394,1.051-3.392l19.259-28.096c1.02-1.487,2.654-2.437,4.451-2.587c1.795-0.151,3.565,0.517,4.817,1.815
						l23.702,24.582c1.262,1.309,1.862,3.119,1.633,4.922c-0.229,1.803-1.265,3.406-2.813,4.356L349.24,317.66
						C348.278,318.25,347.19,318.546,346.102,318.546z M352.102,291.554v10.27l27.46-16.852l-13.413-13.911L352.102,291.554z"/>
				</g>
				<g>
					<path class="st2" d="M346.102,352.69c-3.313,0-6-2.686-6-6v-34.144c0-3.314,2.687-6,6-6s6,2.686,6,6v34.144
						C352.102,350.004,349.415,352.69,346.102,352.69z"/>
				</g>
				<g>
					<polygon class="st1" points="388.13,92.929 303.978,92.929 311.36,149.681 380.748,149.681 					"/>
				</g>
				<g>
					<path class="st2" d="M380.748,155.681h-69.389c-3.015,0-5.562-2.237-5.95-5.226l-7.381-56.752
						c-0.223-1.712,0.303-3.437,1.442-4.733c1.139-1.297,2.781-2.04,4.508-2.04h84.151c1.727,0,3.369,0.744,4.508,2.04
						c1.14,1.297,1.665,3.022,1.442,4.734l-7.382,56.752C386.31,153.444,383.763,155.681,380.748,155.681z M316.63,143.681h58.848
						l5.821-44.752H310.81L316.63,143.681z"/>
				</g>
				<g>
					<path class="st2" d="M359.084,116.25h-7.991v-7.991c0-0.934-0.757-1.691-1.691-1.691h-6.728c-0.934,0-1.691,0.757-1.691,1.691
						v7.991h-7.991c-0.934,0-1.691,0.757-1.691,1.691v6.728c0,0.934,0.757,1.691,1.691,1.691h7.991v7.991
						c0,0.934,0.757,1.691,1.691,1.691h6.728c0.934,0,1.691-0.757,1.691-1.691v-7.991h7.991c0.934,0,1.691-0.757,1.691-1.691v-6.728
						C360.775,117.007,360.018,116.25,359.084,116.25z"/>
				</g>
			</g>
		</g>
		<g>
			<g>
				<circle class="st1" cx="256" cy="366.481" r="52.59"/>
			</g>
			<g>
				<path class="st2" d="M256,425.071c-32.307,0-58.59-26.283-58.59-58.59s26.283-58.59,58.59-58.59s58.59,26.283,58.59,58.59
					S288.307,425.071,256,425.071z M256,319.891c-25.69,0-46.59,20.9-46.59,46.59c0,25.69,20.9,46.59,46.59,46.59
					c25.689,0,46.59-20.9,46.59-46.59C302.59,340.791,281.689,319.891,256,319.891z"/>
			</g>
			<g>
				<g>
					<path class="st2" d="M290.006,372.481c-3.313,0-6-2.686-6-6c0-15.443-12.563-28.006-28.006-28.006
						c-7.729,0-14.924,3.08-20.262,8.673c-2.288,2.397-6.086,2.486-8.483,0.198c-2.397-2.288-2.486-6.086-0.198-8.483
						c7.625-7.988,17.903-12.387,28.943-12.387c22.06,0,40.006,17.947,40.006,40.006
						C296.006,369.795,293.319,372.481,290.006,372.481z"/>
				</g>
				<g>
					<path class="st2" d="M256,406.487c-22.06,0-40.006-17.947-40.006-40.006c0-3.314,2.687-6,6-6s6,2.686,6,6
						c0,15.443,12.563,28.006,28.006,28.006c7.481,0,14.514-2.913,19.803-8.203c2.344-2.343,6.142-2.343,8.485,0
						c2.344,2.343,2.344,6.142,0.001,8.485C276.733,402.326,266.687,406.487,256,406.487z"/>
				</g>
				<g>
					<path class="st2" d="M231.431,343.52l6.562,6.004c0.932,0.853,0.495,2.404-0.745,2.645l-6.85,1.331l-7.812,1.517
						c-1.014,0.197-1.93-0.641-1.824-1.669l0.819-7.915l0.718-6.94c0.13-1.257,1.636-1.83,2.569-0.977L231.431,343.52z"/>
				</g>
				<g>
					<path class="st2" d="M279.168,391.47l-6.897-6.311c-0.98-0.897-0.521-2.527,0.783-2.78l7.199-1.398l8.211-1.595
						c1.066-0.207,2.028,0.674,1.917,1.754l-0.861,8.32l-0.755,7.295c-0.137,1.321-1.72,1.923-2.7,1.026L279.168,391.47z"/>
				</g>
			</g>
		</g>
	</g>
</g>
</svg>
